<svg id="visual" viewBox="0 0 900 600" width="900" height="600" xmlns="http://www.w3.org/2000/svg" xmlns:xlink="http://www.w3.org/1999/xlink" version="1.1"><g stroke-width="1" stroke-linejoin="bevel"><path d="M474 290L373 367L497 371Z" fill="#451116" stroke="#451116"></path><path d="M474 290L370 294L373 367Z" fill="#761f25" stroke="#761f25"></path><path d="M271 203L312 293L370 294Z" fill="#651a20" stroke="#651a20"></path><path d="M370 294L312 293L373 367Z" fill="#451116" stroke="#451116"></path><path d="M312 293L307 388L373 367Z" fill="#ce3a3a" stroke="#ce3a3a"></path><path d="M373 367L474 497L497 371Z" fill="#87242a" stroke="#87242a"></path><path d="M474 290L430 199L370 294Z" fill="#651a20" stroke="#651a20"></path><path d="M474 290L494 200L430 199Z" fill="#98292e" stroke="#98292e"></path><path d="M582 210L494 200L474 290Z" fill="#87242a" stroke="#87242a"></path><path d="M422 529L474 497L373 367Z" fill="#bc3436" stroke="#bc3436"></path><path d="M474 497L606 393L497 371Z" fill="#aa2e32" stroke="#aa2e32"></path><path d="M497 371L627 266L474 290Z" fill="#55161b" stroke="#55161b"></path><path d="M307 388L422 529L373 367Z" fill="#aa2e32" stroke="#aa2e32"></path><path d="M627 266L582 210L474 290Z" fill="#aa2e32" stroke="#aa2e32"></path><path d="M312 293L234 381L307 388Z" fill="#87242a" stroke="#87242a"></path><path d="M307 388L270 527L422 529Z" fill="#98292e" stroke="#98292e"></path><path d="M606 393L627 266L497 371Z" fill="#87242a" stroke="#87242a"></path><path d="M430 199L271 203L370 294Z" fill="#ce3a3a" stroke="#ce3a3a"></path><path d="M312 293L191 313L234 381Z" fill="#451116" stroke="#451116"></path><path d="M430 199L396 124L271 203Z" fill="#bc3436" stroke="#bc3436"></path><path d="M494 200L396 124L430 199Z" fill="#55161b" stroke="#55161b"></path><path d="M526 110L396 124L494 200Z" fill="#280707" stroke="#280707"></path><path d="M519 600L633 475L474 497Z" fill="#761f25" stroke="#761f25"></path><path d="M474 497L633 475L606 393Z" fill="#98292e" stroke="#98292e"></path><path d="M606 393L706 289L627 266Z" fill="#98292e" stroke="#98292e"></path><path d="M234 381L270 527L307 388Z" fill="#ce3a3a" stroke="#ce3a3a"></path><path d="M271 203L191 313L312 293Z" fill="#bc3436" stroke="#bc3436"></path><path d="M234 381L183 504L270 527Z" fill="#761f25" stroke="#761f25"></path><path d="M577 109L526 110L582 210Z" fill="#55161b" stroke="#55161b"></path><path d="M582 210L526 110L494 200Z" fill="#bc3436" stroke="#bc3436"></path><path d="M328 600L428 600L422 529Z" fill="#bc3436" stroke="#bc3436"></path><path d="M422 529L519 600L474 497Z" fill="#87242a" stroke="#87242a"></path><path d="M633 475L685 403L606 393Z" fill="#87242a" stroke="#87242a"></path><path d="M396 124L318 110L271 203Z" fill="#98292e" stroke="#98292e"></path><path d="M271 203L200 181L191 313Z" fill="#280707" stroke="#280707"></path><path d="M314 0L318 110L396 124Z" fill="#761f25" stroke="#761f25"></path><path d="M428 600L519 600L422 529Z" fill="#761f25" stroke="#761f25"></path><path d="M728 205L582 210L627 266Z" fill="#651a20" stroke="#651a20"></path><path d="M675 73L577 109L582 210Z" fill="#55161b" stroke="#55161b"></path><path d="M477 0L427 0L396 124Z" fill="#98292e" stroke="#98292e"></path><path d="M685 403L706 289L606 393Z" fill="#280707" stroke="#280707"></path><path d="M270 527L328 600L422 529Z" fill="#360d10" stroke="#360d10"></path><path d="M318 110L200 181L271 203Z" fill="#87242a" stroke="#87242a"></path><path d="M111 480L183 504L234 381Z" fill="#651a20" stroke="#651a20"></path><path d="M270 527L163 600L328 600Z" fill="#651a20" stroke="#651a20"></path><path d="M519 600L619 600L633 475Z" fill="#aa2e32" stroke="#aa2e32"></path><path d="M633 475L731 493L685 403Z" fill="#55161b" stroke="#55161b"></path><path d="M706 289L728 205L627 266Z" fill="#651a20" stroke="#651a20"></path><path d="M767 282L728 205L706 289Z" fill="#451116" stroke="#451116"></path><path d="M692 600L731 493L633 475Z" fill="#ce3a3a" stroke="#ce3a3a"></path><path d="M807 383L767 282L706 289Z" fill="#bc3436" stroke="#bc3436"></path><path d="M807 383L706 289L685 403Z" fill="#aa2e32" stroke="#aa2e32"></path><path d="M477 0L526 110L601 0Z" fill="#761f25" stroke="#761f25"></path><path d="M477 0L396 124L526 110Z" fill="#98292e" stroke="#98292e"></path><path d="M318 110L170 109L200 181Z" fill="#451116" stroke="#451116"></path><path d="M601 0L526 110L577 109Z" fill="#761f25" stroke="#761f25"></path><path d="M200 181L92 293L191 313Z" fill="#451116" stroke="#451116"></path><path d="M191 313L89 375L234 381Z" fill="#451116" stroke="#451116"></path><path d="M92 293L89 375L191 313Z" fill="#87242a" stroke="#87242a"></path><path d="M89 375L111 480L234 381Z" fill="#ce3a3a" stroke="#ce3a3a"></path><path d="M183 504L163 600L270 527Z" fill="#55161b" stroke="#55161b"></path><path d="M197 0L170 109L318 110Z" fill="#451116" stroke="#451116"></path><path d="M200 181L71 193L92 293Z" fill="#651a20" stroke="#651a20"></path><path d="M619 600L692 600L633 475Z" fill="#98292e" stroke="#98292e"></path><path d="M776 111L675 73L728 205Z" fill="#87242a" stroke="#87242a"></path><path d="M728 205L675 73L582 210Z" fill="#aa2e32" stroke="#aa2e32"></path><path d="M427 0L314 0L396 124Z" fill="#761f25" stroke="#761f25"></path><path d="M731 493L807 383L685 403Z" fill="#87242a" stroke="#87242a"></path><path d="M821 520L807 383L731 493Z" fill="#360d10" stroke="#360d10"></path><path d="M109 600L163 600L183 504Z" fill="#ce3a3a" stroke="#ce3a3a"></path><path d="M675 73L601 0L577 109Z" fill="#aa2e32" stroke="#aa2e32"></path><path d="M767 282L800 194L728 205Z" fill="#ce3a3a" stroke="#ce3a3a"></path><path d="M675 73L697 0L601 0Z" fill="#87242a" stroke="#87242a"></path><path d="M900 323L800 194L767 282Z" fill="#ce3a3a" stroke="#ce3a3a"></path><path d="M170 109L71 193L200 181Z" fill="#280707" stroke="#280707"></path><path d="M92 293L0 385L89 375Z" fill="#360d10" stroke="#360d10"></path><path d="M800 194L776 111L728 205Z" fill="#98292e" stroke="#98292e"></path><path d="M0 600L109 600L111 480Z" fill="#ce3a3a" stroke="#ce3a3a"></path><path d="M111 480L109 600L183 504Z" fill="#761f25" stroke="#761f25"></path><path d="M0 475L111 480L89 375Z" fill="#ce3a3a" stroke="#ce3a3a"></path><path d="M197 0L127 65L170 109Z" fill="#87242a" stroke="#87242a"></path><path d="M170 109L127 65L71 193Z" fill="#451116" stroke="#451116"></path><path d="M314 0L197 0L318 110Z" fill="#360d10" stroke="#360d10"></path><path d="M779 600L821 520L731 493Z" fill="#55161b" stroke="#55161b"></path><path d="M807 383L900 323L767 282Z" fill="#451116" stroke="#451116"></path><path d="M692 600L779 600L731 493Z" fill="#aa2e32" stroke="#aa2e32"></path><path d="M776 111L697 0L675 73Z" fill="#98292e" stroke="#98292e"></path><path d="M0 267L0 385L92 293Z" fill="#87242a" stroke="#87242a"></path><path d="M0 190L0 267L71 193Z" fill="#98292e" stroke="#98292e"></path><path d="M71 193L0 267L92 293Z" fill="#ce3a3a" stroke="#ce3a3a"></path><path d="M0 385L0 475L89 375Z" fill="#aa2e32" stroke="#aa2e32"></path><path d="M0 127L0 190L71 193Z" fill="#87242a" stroke="#87242a"></path><path d="M900 376L900 323L807 383Z" fill="#aa2e32" stroke="#aa2e32"></path><path d="M800 194L900 180L776 111Z" fill="#651a20" stroke="#651a20"></path><path d="M900 489L900 376L807 383Z" fill="#aa2e32" stroke="#aa2e32"></path><path d="M900 489L807 383L821 520Z" fill="#360d10" stroke="#360d10"></path><path d="M197 0L115 0L127 65Z" fill="#360d10" stroke="#360d10"></path><path d="M127 65L0 127L71 193Z" fill="#451116" stroke="#451116"></path><path d="M900 600L900 489L821 520Z" fill="#360d10" stroke="#360d10"></path><path d="M0 0L0 127L127 65Z" fill="#98292e" stroke="#98292e"></path><path d="M900 323L900 180L800 194Z" fill="#87242a" stroke="#87242a"></path><path d="M776 111L811 0L697 0Z" fill="#ce3a3a" stroke="#ce3a3a"></path><path d="M0 475L0 600L111 480Z" fill="#aa2e32" stroke="#aa2e32"></path><path d="M900 76L811 0L776 111Z" fill="#bc3436" stroke="#bc3436"></path><path d="M779 600L900 600L821 520Z" fill="#98292e" stroke="#98292e"></path><path d="M900 180L900 76L776 111Z" fill="#98292e" stroke="#98292e"></path><path d="M115 0L0 0L127 65Z" fill="#87242a" stroke="#87242a"></path><path d="M900 76L900 0L811 0Z" fill="#87242a" stroke="#87242a"></path></g></svg>